<svg width="53" height="27" fill="none" xmlns="http://www.w3.org/2000/svg"><path d="M.763 14.679l9.204 11.19c.295.358.665.537 1.035.537.37 0 .74-.179 1.035-.537.591-.716.591-1.835 0-2.551l-6.69-8.147h21.586c.814 0 1.479-.806 1.479-1.79 0-.985-.665-1.79-1.479-1.79H5.346l6.69-8.147c.592-.717.592-1.836 0-2.552-.59-.716-1.515-.716-2.106 0L.726 12.082c-.555.761-.555 1.925.037 2.597z" fill="#9A9A9A"/><rect width="50" height="4.002" rx="2.001" transform="matrix(-1 0 0 1 53 11.4)" fill="#9A9A9A"/></svg>